<mxfile host="app.diagrams.net" modified="2024-03-07T09:07:57.489Z" agent="Mozilla/5.0 (Windows NT 10.0; Win64; x64) AppleWebKit/537.36 (KHTML, like Gecko) Chrome/122.0.0.0 Safari/537.36 Edg/122.0.0.0" etag="d8jub8EJ_atx6pQXxJnZ" version="23.1.5" type="github">
  <diagram name="Page-1" id="e7e014a7-5840-1c2e-5031-d8a46d1fe8dd">
    <mxGraphModel dx="788" dy="504" grid="0" gridSize="10" guides="1" tooltips="1" connect="1" arrows="1" fold="1" page="1" pageScale="1" pageWidth="1169" pageHeight="826" background="none" math="0" shadow="0">
      <root>
        <mxCell id="0" />
        <mxCell id="1" parent="0" />
        <mxCell id="2" value="获取锁" style="swimlane;whiteSpace=wrap" parent="1" vertex="1">
          <mxGeometry x="164.5" y="128" width="280" height="412" as="geometry" />
        </mxCell>
        <mxCell id="5" value="" style="ellipse;shape=startState;fillColor=#000000;strokeColor=#ff0000;" parent="2" vertex="1">
          <mxGeometry x="100" y="40" width="30" height="30" as="geometry" />
        </mxCell>
        <mxCell id="6" value="" style="edgeStyle=elbowEdgeStyle;elbow=horizontal;verticalAlign=bottom;endArrow=open;endSize=8;strokeColor=#FF0000;endFill=1;rounded=0" parent="2" source="5" target="7" edge="1">
          <mxGeometry x="100" y="40" as="geometry">
            <mxPoint x="115" y="110" as="targetPoint" />
          </mxGeometry>
        </mxCell>
        <mxCell id="7" value="上锁" style="strokeColor=#FF0000;" parent="2" vertex="1">
          <mxGeometry x="60" y="92" width="110" height="28" as="geometry" />
        </mxCell>
        <mxCell id="10" value="SET key value&#xa;NX EX seconds" style="strokeColor=#FF0000;" parent="2" vertex="1">
          <mxGeometry x="60" y="152" width="110" height="38" as="geometry" />
        </mxCell>
        <mxCell id="Txw60cx1Kh3sxlR9NIMl-50" value="" style="ellipse;shape=endState;fillColor=#000000;strokeColor=#ff0000" vertex="1" parent="2">
          <mxGeometry x="100" y="362" width="30" height="30" as="geometry" />
        </mxCell>
        <mxCell id="Txw60cx1Kh3sxlR9NIMl-54" value="" style="edgeStyle=elbowEdgeStyle;elbow=horizontal;verticalAlign=bottom;endArrow=open;endSize=8;strokeColor=#FF0000;endFill=1;rounded=0;exitX=0.5;exitY=1;exitDx=0;exitDy=0;entryX=0.5;entryY=0;entryDx=0;entryDy=0;" edge="1" parent="2" source="7" target="10">
          <mxGeometry x="-64.5" y="-88" as="geometry">
            <mxPoint x="125" y="102" as="targetPoint" />
            <mxPoint x="125" y="80" as="sourcePoint" />
          </mxGeometry>
        </mxCell>
        <mxCell id="Txw60cx1Kh3sxlR9NIMl-44" value="获取锁成功" style="rhombus;whiteSpace=wrap;html=1;strokeColor=#FF0000;" vertex="1" parent="2">
          <mxGeometry x="60" y="222" width="110" height="48" as="geometry" />
        </mxCell>
        <mxCell id="Txw60cx1Kh3sxlR9NIMl-55" value="" style="edgeStyle=elbowEdgeStyle;elbow=horizontal;verticalAlign=bottom;endArrow=open;endSize=8;strokeColor=#FF0000;endFill=1;rounded=0;exitX=0.5;exitY=1;exitDx=0;exitDy=0;entryX=0.5;entryY=0;entryDx=0;entryDy=0;" edge="1" parent="2">
          <mxGeometry x="-229" y="-216" as="geometry">
            <mxPoint x="114.98000000000002" y="222" as="targetPoint" />
            <mxPoint x="114.98000000000002" y="190" as="sourcePoint" />
          </mxGeometry>
        </mxCell>
        <mxCell id="Txw60cx1Kh3sxlR9NIMl-49" value="上锁失败" style="" vertex="1" parent="2">
          <mxGeometry x="195.5" y="302" width="70" height="30" as="geometry" />
        </mxCell>
        <mxCell id="Txw60cx1Kh3sxlR9NIMl-48" value="上锁成功" style="strokeColor=#FF0000;" vertex="1" parent="2">
          <mxGeometry x="80" y="302" width="70" height="30" as="geometry" />
        </mxCell>
        <mxCell id="Txw60cx1Kh3sxlR9NIMl-58" value="" style="edgeStyle=elbowEdgeStyle;elbow=horizontal;verticalAlign=bottom;endArrow=open;endSize=8;strokeColor=#FF0000;endFill=1;rounded=0;exitX=0.5;exitY=1;exitDx=0;exitDy=0;entryX=0.5;entryY=0;entryDx=0;entryDy=0;" edge="1" parent="2">
          <mxGeometry x="-393.5" y="-344" as="geometry">
            <mxPoint x="114.66000000000003" y="302" as="targetPoint" />
            <mxPoint x="114.66000000000003" y="270" as="sourcePoint" />
          </mxGeometry>
        </mxCell>
        <mxCell id="Txw60cx1Kh3sxlR9NIMl-63" value="是" style="edgeLabel;html=1;align=center;verticalAlign=middle;resizable=0;points=[];" vertex="1" connectable="0" parent="Txw60cx1Kh3sxlR9NIMl-58">
          <mxGeometry relative="1" as="geometry">
            <mxPoint y="-5" as="offset" />
          </mxGeometry>
        </mxCell>
        <mxCell id="Txw60cx1Kh3sxlR9NIMl-59" value="重试" style="strokeColor=#FF0000;" vertex="1" parent="2">
          <mxGeometry x="195.5" y="156" width="70" height="30" as="geometry" />
        </mxCell>
        <mxCell id="Txw60cx1Kh3sxlR9NIMl-60" value="" style="edgeStyle=elbowEdgeStyle;elbow=horizontal;verticalAlign=bottom;endArrow=open;endSize=8;strokeColor=#FF0000;endFill=1;rounded=0;exitX=1;exitY=0.5;exitDx=0;exitDy=0;entryX=0.5;entryY=0;entryDx=0;entryDy=0;" edge="1" parent="2" source="Txw60cx1Kh3sxlR9NIMl-44" target="Txw60cx1Kh3sxlR9NIMl-49">
          <mxGeometry x="-393.5" y="-344" as="geometry">
            <mxPoint x="215.5" y="285" as="targetPoint" />
            <mxPoint x="215.5" y="253" as="sourcePoint" />
            <Array as="points">
              <mxPoint x="231" y="272" />
            </Array>
          </mxGeometry>
        </mxCell>
        <mxCell id="Txw60cx1Kh3sxlR9NIMl-61" value="" style="edgeStyle=elbowEdgeStyle;elbow=horizontal;verticalAlign=bottom;endArrow=open;endSize=8;strokeColor=#FF0000;endFill=1;rounded=0;exitX=1;exitY=0.5;exitDx=0;exitDy=0;entryX=0.5;entryY=1;entryDx=0;entryDy=0;" edge="1" parent="2" source="Txw60cx1Kh3sxlR9NIMl-44" target="Txw60cx1Kh3sxlR9NIMl-59">
          <mxGeometry x="-558" y="-472" as="geometry">
            <mxPoint x="241" y="312" as="targetPoint" />
            <mxPoint x="180" y="256" as="sourcePoint" />
            <Array as="points">
              <mxPoint x="231" y="212" />
            </Array>
          </mxGeometry>
        </mxCell>
        <mxCell id="Txw60cx1Kh3sxlR9NIMl-62" value="否" style="edgeLabel;html=1;align=center;verticalAlign=middle;resizable=0;points=[];" vertex="1" connectable="0" parent="Txw60cx1Kh3sxlR9NIMl-61">
          <mxGeometry relative="1" as="geometry">
            <mxPoint x="1" y="-1" as="offset" />
          </mxGeometry>
        </mxCell>
        <mxCell id="Txw60cx1Kh3sxlR9NIMl-64" value="" style="edgeStyle=elbowEdgeStyle;elbow=horizontal;verticalAlign=bottom;endArrow=open;endSize=8;strokeColor=#FF0000;endFill=1;rounded=0;exitX=0.5;exitY=0;exitDx=0;exitDy=0;entryX=1;entryY=0.5;entryDx=0;entryDy=0;" edge="1" parent="2" source="Txw60cx1Kh3sxlR9NIMl-59" target="7">
          <mxGeometry x="-229" y="-216" as="geometry">
            <mxPoint x="125" y="162" as="targetPoint" />
            <mxPoint x="125" y="130" as="sourcePoint" />
            <Array as="points">
              <mxPoint x="231" y="122" />
            </Array>
          </mxGeometry>
        </mxCell>
        <mxCell id="Txw60cx1Kh3sxlR9NIMl-65" value="" style="edgeStyle=elbowEdgeStyle;elbow=horizontal;verticalAlign=bottom;endArrow=open;endSize=8;strokeColor=#FF0000;endFill=1;rounded=0;exitX=0.5;exitY=1;exitDx=0;exitDy=0;entryX=0.5;entryY=0;entryDx=0;entryDy=0;" edge="1" parent="2" target="Txw60cx1Kh3sxlR9NIMl-50">
          <mxGeometry x="-393.5" y="-344" as="geometry">
            <mxPoint x="114.77000000000004" y="364" as="targetPoint" />
            <mxPoint x="114.77000000000004" y="332" as="sourcePoint" />
          </mxGeometry>
        </mxCell>
        <mxCell id="Txw60cx1Kh3sxlR9NIMl-66" value="" style="edgeStyle=elbowEdgeStyle;elbow=horizontal;verticalAlign=bottom;endArrow=open;endSize=8;strokeColor=#FF0000;endFill=1;rounded=0;exitX=0.5;exitY=1;exitDx=0;exitDy=0;entryX=1;entryY=0.5;entryDx=0;entryDy=0;" edge="1" parent="2" source="Txw60cx1Kh3sxlR9NIMl-49" target="Txw60cx1Kh3sxlR9NIMl-50">
          <mxGeometry x="-558" y="-472" as="geometry">
            <mxPoint x="124.77000000000004" y="374" as="targetPoint" />
            <mxPoint x="124.77000000000004" y="342" as="sourcePoint" />
            <Array as="points">
              <mxPoint x="231" y="362" />
            </Array>
          </mxGeometry>
        </mxCell>
        <mxCell id="4" value="释放锁" style="swimlane;whiteSpace=wrap" parent="1" vertex="1">
          <mxGeometry x="445" y="128" width="280" height="412" as="geometry" />
        </mxCell>
        <mxCell id="38" value="" style="ellipse;shape=endState;fillColor=#000000;strokeColor=#ff0000" parent="4" vertex="1">
          <mxGeometry x="130" y="222" width="30" height="30" as="geometry" />
        </mxCell>
        <mxCell id="Txw60cx1Kh3sxlR9NIMl-51" value="" style="ellipse;shape=startState;fillColor=#000000;strokeColor=#ff0000;" vertex="1" parent="4">
          <mxGeometry x="130" y="42" width="30" height="30" as="geometry" />
        </mxCell>
        <mxCell id="Txw60cx1Kh3sxlR9NIMl-52" value="解锁" style="strokeColor=#FF0000;" vertex="1" parent="4">
          <mxGeometry x="90" y="92" width="110" height="28" as="geometry" />
        </mxCell>
        <mxCell id="Txw60cx1Kh3sxlR9NIMl-53" value="执行Lua脚本&#xa;获取并删除锁" style="strokeColor=#FF0000;" vertex="1" parent="4">
          <mxGeometry x="90" y="152" width="110" height="38" as="geometry" />
        </mxCell>
        <mxCell id="Txw60cx1Kh3sxlR9NIMl-67" value="" style="edgeStyle=elbowEdgeStyle;elbow=horizontal;verticalAlign=bottom;endArrow=open;endSize=8;strokeColor=#FF0000;endFill=1;rounded=0" edge="1" parent="4">
          <mxGeometry x="-345" y="-88" as="geometry">
            <mxPoint x="145" y="92" as="targetPoint" />
            <mxPoint x="144.79999999999995" y="72" as="sourcePoint" />
          </mxGeometry>
        </mxCell>
        <mxCell id="Txw60cx1Kh3sxlR9NIMl-68" value="" style="edgeStyle=elbowEdgeStyle;elbow=horizontal;verticalAlign=bottom;endArrow=open;endSize=8;strokeColor=#FF0000;endFill=1;rounded=0;exitX=0.5;exitY=1;exitDx=0;exitDy=0;entryX=0.5;entryY=0;entryDx=0;entryDy=0;" edge="1" parent="4">
          <mxGeometry x="-509.5" y="-216" as="geometry">
            <mxPoint x="144.96000000000004" y="152" as="targetPoint" />
            <mxPoint x="144.96000000000004" y="120" as="sourcePoint" />
          </mxGeometry>
        </mxCell>
        <mxCell id="Txw60cx1Kh3sxlR9NIMl-69" value="" style="edgeStyle=elbowEdgeStyle;elbow=horizontal;verticalAlign=bottom;endArrow=open;endSize=8;strokeColor=#FF0000;endFill=1;rounded=0;exitX=0.5;exitY=1;exitDx=0;exitDy=0;entryX=0.5;entryY=0;entryDx=0;entryDy=0;" edge="1" parent="4">
          <mxGeometry x="-954.5" y="-344" as="geometry">
            <mxPoint x="144.76" y="222" as="targetPoint" />
            <mxPoint x="144.76" y="190" as="sourcePoint" />
          </mxGeometry>
        </mxCell>
      </root>
    </mxGraphModel>
  </diagram>
</mxfile>
